# xmcd
#
# Track frame offsets:
#	150
#	13145
#	30298
#	41774
#	54063
#	62053
#	77054
#	99107
#	108185
#	119988
#	129091
#	142169
#
# Disc length: 2070 seconds
#
# Revision: 15
# Processed by: cddbd v1.5.2PL0 Copyright (c) Steve Scherf et al.
# Submitted via: Jack! The Knife 20 Magnifico
#
DISCID=9608140c
DTITLE=La Polla Records - Disco Negro
DYEAR=1992
DGENRE=Punk
TTITLE0=Europa
TTITLE1=Sábado 14
TTITLE2=Capitalismo
TTITLE3=Demo Do Can
TTITLE4=Alicia
TTITLE5=Baileis
TTITLE6=Barby
TTITLE7=Memoria De Muerte
TTITLE8=Los Lumbreras
TTITLE9=Fuego Y Cristal
TTITLE10=Himno
TTITLE11=Cinco Contra El Calvo
EXTD=Marino Goñi and La Polla Records
EXTT0=
EXTT1=
EXTT2=
EXTT3=
EXTT4=
EXTT5=
EXTT6=
EXTT7=
EXTT8=
EXTT9=
EXTT10=
EXTT11=
PLAYORDER=
